<?xml version="1.0" standalone="no"?>
<!DOCTYPE svg PUBLIC "-//W3C//DTD SVG 20010904//EN"
 "http://www.w3.org/TR/2001/REC-SVG-20010904/DTD/svg10.dtd">
<svg version="1.0" xmlns="http://www.w3.org/2000/svg"
 width="16.000000pt" height="16.000000pt" viewBox="0 0 16.000000 16.000000"
 preserveAspectRatio="xMidYMid meet">
<metadata>
Created by potrace 1.16, written by Peter Selinger 2001-2019
</metadata>
<g transform="translate(0.000000,16.000000) scale(0.001663,-0.004533)"
fill="#000000" stroke="none">
<path d="M3457 3450 c-42 -43 -839 -837 -1769 -1764 l-1692 -1686 465 0 464 0
1304 1297 c717 714 1307 1299 1311 1301 11 4 43 -27 1365 -1349 l1250 -1249
466 0 465 0 -1310 1309 c-1366 1364 -2223 2214 -2234 2218 -4 1 -42 -33 -85
-77z"/>
<path d="M5570 2865 l-585 -585 233 -232 232 -233 355 355 355 355 487 -486
c269 -267 839 -835 1268 -1262 l780 -777 465 0 465 1 -1730 1724 c-952 948
-1732 1724 -1735 1725 -3 0 -268 -263 -590 -585z"/>
<path d="M7960 2068 l1 -263 378 -382 378 -383 67 0 66 0 0 645 0 645 -445 0
-445 0 0 -262z"/>
<path d="M2830 1285 l0 -385 340 0 340 0 0 385 0 385 -340 0 -340 0 0 -385z"/>
<path d="M3620 1285 l0 -385 325 0 325 0 0 385 0 385 -325 0 -325 0 0 -385z"/>
<path d="M5840 1402 c0 -4 86 -93 190 -197 l190 -190 0 198 0 197 -190 0
c-104 0 -190 -3 -190 -8z"/>
<path d="M6320 1158 l0 -253 147 -147 148 -148 192 0 193 0 0 400 0 400 -340
0 -340 0 0 -252z"/>
<path d="M2830 395 l0 -395 340 0 340 0 0 395 0 395 -340 0 -340 0 0 -395z"/>
<path d="M3620 395 l0 -395 325 0 325 0 0 395 0 395 -325 0 -325 0 0 -395z"/>
<path d="M6721 503 c1 -10 255 -247 269 -251 6 -2 10 41 10 127 l0 131 -140 0
c-77 0 -140 -3 -139 -7z"/>
</g>
</svg>
